<svg xmlns="http://www.w3.org/2000/svg" viewBox="0 0 74.58 23.21"><defs><style>.cls-1{fill:#f15758;}</style></defs><title>Asset 6</title><g id="Layer_2" data-name="Layer 2"><g id="Layer_1-2" data-name="Layer 1"><path class="cls-1" d="M27.62,5.91A5,5,0,0,1,32.71.82a4.88,4.88,0,0,1,4.2,2.27L35,4.2A2.53,2.53,0,0,0,32.71,3a2.71,2.71,0,0,0-2.85,2.91,2.71,2.71,0,0,0,2.85,2.91A2.51,2.51,0,0,0,35,7.62L36.9,8.74A4.85,4.85,0,0,1,32.71,11,5,5,0,0,1,27.62,5.91Z"/><path class="cls-1" d="M45,3.81v7H43v-.66a2.63,2.63,0,0,1-2.08.85,3.51,3.51,0,0,1-3.34-3.69,3.51,3.51,0,0,1,3.34-3.69A2.63,2.63,0,0,1,43,4.47V3.81ZM43,7.31a1.66,1.66,0,1,0-3.33,0,1.66,1.66,0,1,0,3.33,0Z"/><path class="cls-1" d="M50.5,3.67V6a1.65,1.65,0,0,0-2.1,1.59V10.8H46.3v-7h2.1V5.06A2.1,2.1,0,0,1,50.5,3.67Z"/><path class="cls-1" d="M59,7.31A3.51,3.51,0,0,1,55.66,11a2.63,2.63,0,0,1-2.08-.85v.66h-2.1V1h2.1V4.47a2.63,2.63,0,0,1,2.08-.85A3.51,3.51,0,0,1,59,7.31Zm-2.1,0a1.66,1.66,0,1,0-3.33,0,1.66,1.66,0,1,0,3.33,0Z"/><path class="cls-1" d="M59.55,7.31A3.71,3.71,0,1,1,63.26,11,3.67,3.67,0,0,1,59.55,7.31Zm5.31,0a1.61,1.61,0,1,0-3.22,0,1.61,1.61,0,1,0,3.22,0Z"/><path class="cls-1" d="M74.58,6.51V10.8h-2.1v-4a1.15,1.15,0,0,0-1.22-1.27C70.5,5.55,70,6,70,7V10.8h-2.1v-7H70v.66a2.39,2.39,0,0,1,2-.85A2.62,2.62,0,0,1,74.58,6.51Z"/><path class="cls-1" d="M27.48,17.14a5,5,0,0,1,5.09-5.09,4.88,4.88,0,0,1,4.2,2.27l-1.93,1.12a2.53,2.53,0,0,0-2.27-1.2,2.71,2.71,0,0,0-2.85,2.91,2.71,2.71,0,0,0,2.85,2.91,2.52,2.52,0,0,0,2.27-1.2L36.76,20a4.85,4.85,0,0,1-4.2,2.27A5,5,0,0,1,27.48,17.14Z"/><path class="cls-1" d="M44.6,17.75V22h-2.1v-4a1.15,1.15,0,0,0-1.22-1.27c-.77,0-1.3.45-1.3,1.44V22h-2.1V12.25H40V15.7a2.39,2.39,0,0,1,2-.85A2.61,2.61,0,0,1,44.6,17.75Z"/><path class="cls-1" d="M52.65,15v7h-2.1v-.66a2.63,2.63,0,0,1-2.08.85,3.51,3.51,0,0,1-3.34-3.69,3.51,3.51,0,0,1,3.34-3.69,2.63,2.63,0,0,1,2.08.85V15Zm-2.1,3.5a1.66,1.66,0,1,0-3.33,0,1.66,1.66,0,1,0,3.33,0Z"/><path class="cls-1" d="M53.42,13.17a1.26,1.26,0,1,1,1.26,1.26A1.27,1.27,0,0,1,53.42,13.17ZM53.63,15h2.1v7h-2.1Z"/><path class="cls-1" d="M63.42,17.75V22h-2.1v-4a1.15,1.15,0,0,0-1.22-1.27c-.77,0-1.3.45-1.3,1.44V22H56.7V15h2.1v.66a2.39,2.39,0,0,1,2-.85A2.61,2.61,0,0,1,63.42,17.75Z"/><path class="cls-1" d="M17.91,0H11.84a5.31,5.31,0,0,0-5.3,5.3H9.31a2.53,2.53,0,0,1,2.53-2.53h6.07A2.53,2.53,0,0,1,20.44,5.3v6.07a2.53,2.53,0,0,1-2.53,2.53H11.84a2.53,2.53,0,0,1-2.53-2.53H6.54a5.31,5.31,0,0,0,5.3,5.3h6.07a5.31,5.31,0,0,0,5.3-5.3V5.3A5.31,5.31,0,0,0,17.91,0Z"/><path class="cls-1" d="M11.37,20.44H5.3a2.53,2.53,0,0,1-2.53-2.53V11.84A2.53,2.53,0,0,1,5.3,9.31h6.07a2.53,2.53,0,0,1,2.53,2.53h2.77a5.31,5.31,0,0,0-5.3-5.3H5.3A5.31,5.31,0,0,0,0,11.84v6.07a5.31,5.31,0,0,0,5.3,5.3h6.07a5.31,5.31,0,0,0,5.3-5.3H13.9A2.53,2.53,0,0,1,11.37,20.44Z"/></g></g></svg>